<svg xmlns="http://www.w3.org/2000/svg" width="1280" height="800" viewBox="0 0 1280 800" role="img" aria-label="GeoForge - The Modern GeoJSON Editor">
  <title>GeoForge - The Modern GeoJSON Editor</title>
  <style>
    .ui   { font-family: -apple-system, 'Segoe UI', Roboto, Helvetica, Arial, sans-serif; }
    .mono { font-family: 'SF Mono', 'Cascadia Code', Consolas, 'Liberation Mono', monospace; }
  </style>
  <rect width="1280" height="800" fill="#0d1117"/>

  <!-- ============ Toolbar ============ -->
  <rect width="1280" height="46" fill="#161b22"/>
  <line x1="0" y1="46.5" x2="1280" y2="46.5" stroke="#30363d"/>
  <circle cx="26" cy="23" r="10" fill="none" stroke="#4493f8" stroke-width="2.5"/>
  <circle cx="26" cy="23" r="3.5" fill="#4493f8"/>
  <text class="ui" x="46" y="28" fill="#e6edf3" font-size="15" font-weight="700">GeoForge</text>
  <g class="ui" font-size="12" fill="#c9d1d9" text-anchor="middle">
    <rect x="150" y="12" width="52" height="24" rx="6" fill="#21262d"/><text x="176" y="28">Open</text>
    <rect x="208" y="12" width="58" height="24" rx="6" fill="#21262d"/><text x="237" y="28">Export</text>
    <rect x="272" y="12" width="60" height="24" rx="6" fill="#21262d"/><text x="302" y="28">Format</text>
    <rect x="338" y="12" width="56" height="24" rx="6" fill="#21262d"/><text x="366" y="28">Minify</text>
    <rect x="400" y="12" width="52" height="24" rx="6" fill="#21262d" stroke="#4493f8"/><text x="426" y="28">Copy</text>
    <rect x="458" y="12" width="54" height="24" rx="6" fill="#21262d" stroke="#4493f8"/><text x="485" y="28">Paste</text>
    <line x1="524" y1="12" x2="524" y2="36" stroke="#30363d"/>
    <rect x="534" y="12" width="30" height="24" rx="6" fill="#21262d"/><text x="549" y="28">&#8630;</text>
    <rect x="570" y="12" width="30" height="24" rx="6" fill="#21262d"/><text x="585" y="28">&#8631;</text>
    <line x1="612" y1="12" x2="612" y2="36" stroke="#30363d"/>
    <rect x="622" y="12" width="30" height="24" rx="6" fill="#1f6feb"/><text x="637" y="28" fill="#ffffff">&#8598;</text>
    <rect x="656" y="12" width="30" height="24" rx="6" fill="#21262d"/><text x="671" y="28">&#9679;</text>
    <rect x="690" y="12" width="30" height="24" rx="6" fill="#21262d"/><text x="705" y="28">&#9585;</text>
    <rect x="724" y="12" width="30" height="24" rx="6" fill="#21262d"/><text x="739" y="28">&#11041;</text>
    <rect x="758" y="12" width="30" height="24" rx="6" fill="#21262d"/><text x="773" y="28">&#9645;</text>
    <rect x="792" y="12" width="30" height="24" rx="6" fill="#21262d"/><text x="807" y="28">&#9675;</text>
    <line x1="834" y1="12" x2="834" y2="36" stroke="#30363d"/>
    <rect x="844" y="12" width="92" height="24" rx="6" fill="#21262d"/><text x="890" y="28">Geometry &#9662;</text>
  </g>
  <rect x="950" y="12" width="196" height="24" rx="6" fill="#0d1117" stroke="#30363d"/>
  <text class="ui" x="962" y="28" fill="#8b949e" font-size="11">Search features&#8230;</text>
  <rect x="1154" y="12" width="88" height="24" rx="6" fill="#0d1117" stroke="#30363d"/>
  <text class="ui" x="1166" y="28" fill="#8b949e" font-size="11">Filter</text>
  <text class="ui" x="1254" y="30" fill="#c9d1d9" font-size="15">&#9790;</text>

  <!-- ============ Feature Explorer ============ -->
  <rect y="47" width="290" height="725" fill="#10151d"/>
  <line x1="290.5" y1="47" x2="290.5" y2="772" stroke="#30363d"/>
  <text class="ui" x="16" y="74" fill="#8b949e" font-size="11" letter-spacing="1.5">EXPLORER</text>
  <text class="ui" x="258" y="74" fill="#8b949e" font-size="11">4</text>

  <g class="mono" font-size="12">
    <text x="16" y="102" fill="#8b949e">&#9662;</text>
    <text x="34" y="102" fill="#3fb950">&#11041;</text>
    <text x="52" y="102" fill="#e6edf3">City Park</text>
    <text x="274" y="102" fill="#57606a" text-anchor="end">Polygon</text>
    <text x="52" y="124" fill="#57606a" font-size="11">type: park &#183; 5 vertices</text>

    <text x="16" y="150" fill="#8b949e">&#9656;</text>
    <text x="34" y="150" fill="#58a6ff">&#9585;</text>
    <text x="52" y="150" fill="#e6edf3">River Walk</text>
    <text x="274" y="150" fill="#57606a" text-anchor="end">LineString</text>

    <rect y="160" width="290" height="26" fill="#1f6feb" opacity="0.18"/>
    <rect y="160" width="3" height="26" fill="#4493f8"/>
    <text x="16" y="178" fill="#8b949e">&#9656;</text>
    <text x="34" y="178" fill="#4493f8">&#9679;</text>
    <text x="52" y="178" fill="#ffffff">Downtown Station</text>
    <text x="274" y="178" fill="#8b949e" text-anchor="end">Point</text>

    <text x="16" y="206" fill="#8b949e">&#9656;</text>
    <text x="34" y="206" fill="#f0883e">&#9679;</text>
    <text x="52" y="206" fill="#e6edf3">Harbor View</text>
    <text x="274" y="206" fill="#57606a" text-anchor="end">Point</text>
  </g>

  <line x1="0" y1="228" x2="290" y2="228" stroke="#21262d"/>
  <text class="ui" x="16" y="252" fill="#8b949e" font-size="11" letter-spacing="1.5">PROPERTIES</text>
  <g class="mono" font-size="12">
    <text x="16" y="278" fill="#9cdcfe">name</text><text x="120" y="278" fill="#e6edf3">Downtown Station</text>
    <text x="16" y="302" fill="#9cdcfe">type</text><text x="120" y="302" fill="#e6edf3">station</text>
    <text x="16" y="326" fill="#9cdcfe">population</text><text x="120" y="326" fill="#b5cea8">25000</text>
  </g>
  <rect x="16" y="340" width="84" height="22" rx="5" fill="#21262d"/>
  <text class="ui" x="58" y="355" fill="#c9d1d9" font-size="11" text-anchor="middle">+ Add field</text>

  <line x1="0" y1="382" x2="290" y2="382" stroke="#21262d"/>
  <text class="ui" x="16" y="406" fill="#8b949e" font-size="11" letter-spacing="1.5">STATISTICS</text>
  <g class="ui" font-size="12" fill="#c9d1d9">
    <text x="16" y="430">Features</text><text x="274" y="430" text-anchor="end" fill="#e6edf3">4</text>
    <text x="16" y="452">Vertices</text><text x="274" y="452" text-anchor="end" fill="#e6edf3">14</text>
    <text x="16" y="474">Size</text><text x="274" y="474" text-anchor="end" fill="#e6edf3">2.1 KB</text>
    <text x="16" y="496">Bounds</text><text x="274" y="496" text-anchor="end" fill="#e6edf3">-74.02, 40.70 &#8594; -73.93, 40.78</text>
  </g>

  <line x1="0" y1="518" x2="290" y2="518" stroke="#21262d"/>
  <text class="ui" x="16" y="542" fill="#8b949e" font-size="11" letter-spacing="1.5">PROBLEMS</text>
  <text class="ui" x="16" y="566" fill="#3fb950" font-size="12">&#10003; No problems detected</text>

  <!-- ============ Code Editor ============ -->
  <rect x="291" y="47" width="469" height="725" fill="#0d1117"/>
  <line x1="760.5" y1="47" x2="760.5" y2="772" stroke="#30363d"/>
  <rect x="291" y="276" width="469" height="144" fill="#1f6feb" opacity="0.10"/>
  <rect x="291" y="276" width="3" height="144" fill="#4493f8"/>

  <g class="mono" font-size="12" fill="#6e7681" text-anchor="end">
    <text x="322" y="76">1</text><text x="322" y="100">2</text><text x="322" y="124">3</text>
    <text x="322" y="148">4</text><text x="322" y="172">5</text><text x="322" y="196">6</text>
    <text x="322" y="220">7</text><text x="322" y="244">8</text><text x="322" y="268">9</text>
    <text x="322" y="292">10</text><text x="322" y="316">11</text><text x="322" y="340">12</text>
    <text x="322" y="364">13</text><text x="322" y="388">14</text><text x="322" y="412">15</text>
    <text x="322" y="436">16</text><text x="322" y="460">17</text><text x="322" y="484">18</text>
    <text x="322" y="508">19</text>
  </g>

  <g class="mono" font-size="12" fill="#d4d4d4">
    <text x="336" y="76">&#123;</text>
    <text x="352" y="100"><tspan fill="#9cdcfe">"type"</tspan>: <tspan fill="#ce9178">"FeatureCollection"</tspan>,</text>
    <text x="352" y="124"><tspan fill="#9cdcfe">"features"</tspan>: [</text>
    <text x="368" y="148">&#123;</text>
    <text x="384" y="172"><tspan fill="#9cdcfe">"type"</tspan>: <tspan fill="#ce9178">"Feature"</tspan>,</text>
    <text x="384" y="196"><tspan fill="#9cdcfe">"id"</tspan>: <tspan fill="#ce9178">"city-park"</tspan>,</text>
    <text x="384" y="220"><tspan fill="#9cdcfe">"properties"</tspan>: &#123; <tspan fill="#9cdcfe">"name"</tspan>: <tspan fill="#ce9178">"City Park"</tspan>, <tspan fill="#9cdcfe">"type"</tspan>: <tspan fill="#ce9178">"park"</tspan> &#125;,</text>
    <text x="384" y="244"><tspan fill="#9cdcfe">"geometry"</tspan>: &#123; <tspan fill="#9cdcfe">"type"</tspan>: <tspan fill="#ce9178">"Polygon"</tspan>, <tspan fill="#9cdcfe">"coordinates"</tspan>: [ &#8230; ] &#125;</text>
    <text x="368" y="268">&#125;,</text>
    <text x="368" y="292">&#123;</text>
    <text x="384" y="316"><tspan fill="#9cdcfe">"type"</tspan>: <tspan fill="#ce9178">"Feature"</tspan>,</text>
    <text x="384" y="340"><tspan fill="#9cdcfe">"id"</tspan>: <tspan fill="#ce9178">"downtown-station"</tspan>,</text>
    <text x="384" y="364"><tspan fill="#9cdcfe">"properties"</tspan>: &#123; <tspan fill="#9cdcfe">"name"</tspan>: <tspan fill="#ce9178">"Downtown Station"</tspan>, <tspan fill="#9cdcfe">"population"</tspan>: <tspan fill="#b5cea8">25000</tspan> &#125;,</text>
    <text x="384" y="388"><tspan fill="#9cdcfe">"geometry"</tspan>: &#123; <tspan fill="#9cdcfe">"type"</tspan>: <tspan fill="#ce9178">"Point"</tspan>, <tspan fill="#9cdcfe">"coordinates"</tspan>: [ <tspan fill="#b5cea8">-73.977</tspan>, <tspan fill="#b5cea8">40.752</tspan> ] &#125;</text>
    <text x="368" y="412">&#125;,</text>
    <text x="368" y="436">&#123; <tspan fill="#9cdcfe">"type"</tspan>: <tspan fill="#ce9178">"Feature"</tspan>, <tspan fill="#9cdcfe">"id"</tspan>: <tspan fill="#ce9178">"river-walk"</tspan>, &#8230; &#125;,</text>
    <text x="368" y="460">&#123; <tspan fill="#9cdcfe">"type"</tspan>: <tspan fill="#ce9178">"Feature"</tspan>, <tspan fill="#9cdcfe">"id"</tspan>: <tspan fill="#ce9178">"harbor-view"</tspan>, &#8230; &#125;</text>
    <text x="352" y="484">]</text>
    <text x="336" y="508">&#125;</text>
  </g>

  <!-- ============ Map ============ -->
  <rect x="761" y="47" width="519" height="725" fill="#0b0f16"/>
  <g stroke="#151d29" stroke-width="1">
    <line x1="820" y1="47" x2="820" y2="772"/><line x1="880" y1="47" x2="880" y2="772"/>
    <line x1="940" y1="47" x2="940" y2="772"/><line x1="1000" y1="47" x2="1000" y2="772"/>
    <line x1="1060" y1="47" x2="1060" y2="772"/><line x1="1120" y1="47" x2="1120" y2="772"/>
    <line x1="1180" y1="47" x2="1180" y2="772"/><line x1="1240" y1="47" x2="1240" y2="772"/>
    <line x1="761" y1="110" x2="1280" y2="110"/><line x1="761" y1="170" x2="1280" y2="170"/>
    <line x1="761" y1="230" x2="1280" y2="230"/><line x1="761" y1="290" x2="1280" y2="290"/>
    <line x1="761" y1="350" x2="1280" y2="350"/><line x1="761" y1="410" x2="1280" y2="410"/>
    <line x1="761" y1="470" x2="1280" y2="470"/><line x1="761" y1="530" x2="1280" y2="530"/>
    <line x1="761" y1="590" x2="1280" y2="590"/><line x1="761" y1="650" x2="1280" y2="650"/>
    <line x1="761" y1="710" x2="1280" y2="710"/>
  </g>

  <polygon points="830,150 990,110 1080,210 1000,320 860,280" fill="#3fb950" fill-opacity="0.18" stroke="#3fb950" stroke-width="2"/>
  <g fill="#3fb950">
    <circle cx="830" cy="150" r="3.5"/><circle cx="990" cy="110" r="3.5"/><circle cx="1080" cy="210" r="3.5"/>
    <circle cx="1000" cy="320" r="3.5"/><circle cx="860" cy="280" r="3.5"/>
  </g>
  <text class="ui" x="930" y="222" fill="#3fb950" font-size="11" text-anchor="middle">City Park</text>

  <polyline points="800,430 870,390 950,470 1030,420 1100,460" fill="none" stroke="#58a6ff" stroke-width="3" stroke-linejoin="round" stroke-linecap="round"/>
  <g fill="#58a6ff">
    <circle cx="800" cy="430" r="3"/><circle cx="870" cy="390" r="3"/><circle cx="950" cy="470" r="3"/>
    <circle cx="1030" cy="420" r="3"/><circle cx="1100" cy="460" r="3"/>
  </g>
  <text class="ui" x="955" y="495" fill="#58a6ff" font-size="11" text-anchor="middle">River Walk</text>

  <circle cx="1120" cy="560" r="13" fill="none" stroke="#4493f8" stroke-opacity="0.45" stroke-width="6"/>
  <circle cx="1120" cy="560" r="6.5" fill="#4493f8" stroke="#ffffff" stroke-width="2"/>
  <text class="ui" x="1120" y="590" fill="#e6edf3" font-size="11" text-anchor="middle">Downtown Station</text>

  <circle cx="880" cy="640" r="6" fill="#f0883e" stroke="#0b0f16" stroke-width="2"/>
  <text class="ui" x="880" y="668" fill="#8b949e" font-size="11" text-anchor="middle">Harbor View</text>

  <rect x="1234" y="63" width="30" height="60" rx="6" fill="#161b22" stroke="#30363d"/>
  <line x1="1234" y1="93" x2="1264" y2="93" stroke="#30363d"/>
  <text class="ui" x="1249" y="84" fill="#c9d1d9" font-size="14" text-anchor="middle">+</text>
  <text class="ui" x="1249" y="114" fill="#c9d1d9" font-size="14" text-anchor="middle">&#8722;</text>
  <rect x="780" y="748" width="80" height="3" fill="#8b949e"/>
  <text class="ui" x="780" y="742" fill="#8b949e" font-size="9">500 m</text>
  <text class="ui" x="1268" y="764" fill="#57606a" font-size="9" text-anchor="end">&#169; OpenStreetMap &#183; CARTO</text>

  <!-- ============ Status Bar ============ -->
  <rect y="772" width="1280" height="28" fill="#161b22"/>
  <line x1="0" y1="772.5" x2="1280" y2="772.5" stroke="#30363d"/>
  <g class="ui" font-size="11">
    <text x="14" y="790" fill="#3fb950">&#10003; Valid GeoJSON</text>
    <text x="132" y="790" fill="#8b949e">4 features &#183; 14 vertices</text>
    <text x="296" y="790" fill="#8b949e">1 selected</text>
    <text x="382" y="790" fill="#8b949e">Ln 12, Col 9</text>
    <text x="478" y="790" fill="#8b949e">2.1 KB</text>
    <text x="1266" y="790" fill="#8b949e" text-anchor="end">Autosaved &#183; just now</text>
  </g>
</svg>
